<svg width="171" height="36" viewBox="0 0 171 36" fill="none" xmlns="http://www.w3.org/2000/svg">
<g clip-path="url(#clip0_19_2)">
<path d="M28.1975 24.4723H8.93652V25.3888H28.1975V24.4723Z" fill="#635DBC"/>
<path d="M28.1975 16.6431H8.93652V17.2205H28.1975V16.6431Z" fill="#635DBC"/>
<path d="M13.7616 17.716H13.063V23.8734H13.7616V17.716Z" fill="#635DBC"/>
<path d="M10.4204 17.716H9.53088V23.881H10.4204V17.716Z" fill="#635DBC"/>
<path d="M27.6004 17.716H26.7109V23.881H27.6004V17.716Z" fill="#635DBC"/>
<path d="M26.1085 17.716H24.7668V22.7677H26.1085V17.716Z" fill="#635DBC"/>
<path d="M26.1085 23.2304H24.7668V23.8797H26.1085V23.2304Z" fill="#635DBC"/>
<path d="M22.6725 17.716H21.3308V22.7677H22.6725V17.716Z" fill="#635DBC"/>
<path d="M22.6725 23.2355H21.3308V23.8848H22.6725V23.2355Z" fill="#635DBC"/>
<path d="M19.2365 17.716H17.8949V22.7677H19.2365V17.716Z" fill="#635DBC"/>
<path d="M19.2365 23.2304H17.8949V23.8797H19.2365V23.2304Z" fill="#635DBC"/>
<path d="M15.8005 17.716H14.4589V22.7677H15.8005V17.716Z" fill="#635DBC"/>
<path d="M15.8005 23.2355H14.4589V23.8848H15.8005V23.2355Z" fill="#635DBC"/>
<path d="M12.3645 17.716H11.0228V22.7677H12.3645V17.716Z" fill="#635DBC"/>
<path d="M12.3645 23.2355H11.0228V23.8848H12.3645V23.2355Z" fill="#635DBC"/>
<path d="M24.0697 17.716H23.3711V23.8734H24.0697V17.716Z" fill="#635DBC"/>
<path d="M20.6336 17.716H19.9351V23.8734H20.6336V17.716Z" fill="#635DBC"/>
<path d="M17.1976 17.716H16.499V23.8734H17.1976V17.716Z" fill="#635DBC"/>
<path d="M9.3007 16.2157L9.16125 15.7618L18.5528 12.494L27.97 15.7618L27.8319 16.2157H9.3007Z" fill="#635DBC"/>
<path d="M8.68878 15.6206L8.54663 15.2663L18.5447 11.7779L28.4533 15.2058L28.3112 15.5601L18.5447 12.1813L8.68878 15.6206Z" fill="#635DBC"/>
<path d="M7.78304 15.2626L7.59351 14.7898L18.546 11L29.4064 14.7898L29.2169 15.2626L18.5446 11.5383L7.78304 15.2626Z" fill="#635DBC"/>
<path d="M33.6667 19C33.6667 26.6817 27.0772 33 18.8333 33C10.5895 33 4 26.6817 4 19C4 11.3183 10.5895 5 18.8333 5C27.0772 5 33.6667 11.3183 33.6667 19Z" stroke="url(#paint0_linear_19_2)" stroke-width="2"/>
</g>
<defs>
<linearGradient id="paint0_linear_19_2" x1="18.8333" y1="4" x2="18.8333" y2="34" gradientUnits="userSpaceOnUse">
<stop stop-color="#877EFF"/>
<stop offset="1" stop-color="#514C99"/>
</linearGradient>
<clipPath id="clip0_19_2">
<rect width="171" height="36" fill="white"/>
</clipPath>
</defs>
</svg>
