<svg width="171" height="36" viewBox="0 0 171 36" fill="none" xmlns="http://www.w3.org/2000/svg">
<g clip-path="url(#clip0_15_37)">
<path d="M28.1975 24.4723H8.93652V25.3888H28.1975V24.4723Z" fill="#635DBC"/>
<path d="M28.1975 16.6431H8.93652V17.2205H28.1975V16.6431Z" fill="#635DBC"/>
<path d="M13.7616 17.716H13.063V23.8734H13.7616V17.716Z" fill="#635DBC"/>
<path d="M10.4204 17.716H9.53088V23.881H10.4204V17.716Z" fill="#635DBC"/>
<path d="M27.6005 17.716H26.711V23.881H27.6005V17.716Z" fill="#635DBC"/>
<path d="M26.1086 17.716H24.7669V22.7677H26.1086V17.716Z" fill="#635DBC"/>
<path d="M26.1086 23.2304H24.7669V23.8797H26.1086V23.2304Z" fill="#635DBC"/>
<path d="M22.6725 17.716H21.3309V22.7677H22.6725V17.716Z" fill="#635DBC"/>
<path d="M22.6725 23.2355H21.3309V23.8848H22.6725V23.2355Z" fill="#635DBC"/>
<path d="M19.2365 17.716H17.8948V22.7677H19.2365V17.716Z" fill="#635DBC"/>
<path d="M19.2365 23.2304H17.8948V23.8797H19.2365V23.2304Z" fill="#635DBC"/>
<path d="M15.8004 17.716H14.4588V22.7677H15.8004V17.716Z" fill="#635DBC"/>
<path d="M15.8004 23.2355H14.4588V23.8848H15.8004V23.2355Z" fill="#635DBC"/>
<path d="M12.3645 17.716H11.0228V22.7677H12.3645V17.716Z" fill="#635DBC"/>
<path d="M12.3645 23.2355H11.0228V23.8848H12.3645V23.2355Z" fill="#635DBC"/>
<path d="M24.0697 17.716H23.3711V23.8734H24.0697V17.716Z" fill="#635DBC"/>
<path d="M20.6336 17.716H19.9351V23.8734H20.6336V17.716Z" fill="#635DBC"/>
<path d="M17.1976 17.716H16.499V23.8734H17.1976V17.716Z" fill="#635DBC"/>
<path d="M9.3007 16.2157L9.16125 15.7618L18.5528 12.494L27.97 15.7618L27.8319 16.2157H9.3007Z" fill="#635DBC"/>
<path d="M8.68878 15.6206L8.54663 15.2663L18.5447 11.7779L28.4533 15.2058L28.3112 15.5601L18.5447 12.1813L8.68878 15.6206Z" fill="#635DBC"/>
<path d="M7.7831 15.2626L7.59357 14.7898L18.5461 11L29.4065 14.7898L29.2169 15.2626L18.5447 11.5383L7.7831 15.2626Z" fill="#635DBC"/>
<path d="M33.6667 19C33.6667 26.6817 27.0772 33 18.8333 33C10.5895 33 4 26.6817 4 19C4 11.3183 10.5895 5 18.8333 5C27.0772 5 33.6667 11.3183 33.6667 19Z" stroke="url(#paint0_linear_15_37)" stroke-width="2"/>
<path d="M40.162 28V11.9H47.706C49.638 11.9 51.11 12.2833 52.122 13.05C53.134 13.8013 53.64 14.8133 53.64 16.086C53.64 16.9447 53.4407 17.6807 53.042 18.294C52.6433 18.892 52.1067 19.3597 51.432 19.697C50.7727 20.019 50.052 20.18 49.27 20.18L49.684 19.352C50.5887 19.352 51.4013 19.5207 52.122 19.858C52.8427 20.18 53.41 20.6553 53.824 21.284C54.2533 21.9127 54.468 22.6947 54.468 23.63C54.468 25.01 53.939 26.0833 52.881 26.85C51.823 27.6167 50.2513 28 48.166 28H40.162ZM43.152 25.654H47.982C49.1013 25.654 49.96 25.47 50.558 25.102C51.156 24.734 51.455 24.1437 51.455 23.331C51.455 22.5337 51.156 21.951 50.558 21.583C49.96 21.1997 49.1013 21.008 47.982 21.008H42.922V18.685H47.384C48.4267 18.685 49.224 18.501 49.776 18.133C50.3433 17.765 50.627 17.213 50.627 16.477C50.627 15.7257 50.3433 15.166 49.776 14.798C49.224 14.43 48.4267 14.246 47.384 14.246H43.152V25.654ZM57.6591 28V11.9H60.1201L70.2171 24.297H68.9981V11.9H71.9651V28H69.5041L59.4071 15.603H60.6261V28H57.6591ZM79.5452 28V14.43H74.2092V11.9H87.8712V14.43H82.5352V28H79.5452ZM96.7461 28.23C94.5381 28.23 92.8055 27.609 91.5481 26.367C90.3061 25.125 89.6851 23.331 89.6851 20.985V11.9H92.6751V20.87C92.6751 22.526 93.0278 23.7297 93.7331 24.481C94.4538 25.2323 95.4658 25.608 96.7691 25.608C98.0725 25.608 99.0768 25.2323 99.7821 24.481C100.487 23.7297 100.84 22.526 100.84 20.87V11.9H103.784V20.985C103.784 23.331 103.155 25.125 101.898 26.367C100.656 27.609 98.9388 28.23 96.7461 28.23ZM113.262 32.623C112.127 32.623 111.015 32.4697 109.927 32.163C108.853 31.8717 107.972 31.4423 107.282 30.875L108.57 28.713C109.106 29.1577 109.781 29.5103 110.594 29.771C111.422 30.047 112.257 30.185 113.101 30.185C114.45 30.185 115.439 29.8707 116.068 29.242C116.696 28.6287 117.011 27.701 117.011 26.459V24.274L117.241 21.491L117.149 18.708V15.718H119.886V26.137C119.886 28.3603 119.318 29.9933 118.184 31.036C117.049 32.094 115.408 32.623 113.262 32.623ZM112.894 27.448C111.728 27.448 110.67 27.2027 109.72 26.712C108.784 26.206 108.041 25.5083 107.489 24.619C106.952 23.7297 106.684 22.687 106.684 21.491C106.684 20.3103 106.952 19.2753 107.489 18.386C108.041 17.4967 108.784 16.8067 109.72 16.316C110.67 15.8253 111.728 15.58 112.894 15.58C113.936 15.58 114.872 15.787 115.7 16.201C116.528 16.615 117.187 17.259 117.678 18.133C118.184 19.007 118.437 20.1263 118.437 21.491C118.437 22.8557 118.184 23.9827 117.678 24.872C117.187 25.746 116.528 26.3977 115.7 26.827C114.872 27.241 113.936 27.448 112.894 27.448ZM113.331 25.01C114.051 25.01 114.695 24.8643 115.263 24.573C115.83 24.2663 116.267 23.8523 116.574 23.331C116.896 22.7943 117.057 22.181 117.057 21.491C117.057 20.801 116.896 20.1953 116.574 19.674C116.267 19.1373 115.83 18.731 115.263 18.455C114.695 18.1637 114.051 18.018 113.331 18.018C112.61 18.018 111.958 18.1637 111.376 18.455C110.808 18.731 110.364 19.1373 110.042 19.674C109.735 20.1953 109.582 20.801 109.582 21.491C109.582 22.181 109.735 22.7943 110.042 23.331C110.364 23.8523 110.808 24.2663 111.376 24.573C111.958 24.8643 112.61 25.01 113.331 25.01ZM123.665 28V15.718H126.402V19.099L126.08 18.11C126.448 17.282 127.023 16.6533 127.805 16.224C128.603 15.7947 129.592 15.58 130.772 15.58V18.317C130.65 18.2863 130.535 18.271 130.427 18.271C130.32 18.2557 130.213 18.248 130.105 18.248C129.017 18.248 128.15 18.57 127.506 19.214C126.862 19.8427 126.54 20.7857 126.54 22.043V28H123.665ZM139.902 28V25.516L139.741 24.987V20.64C139.741 19.7967 139.488 19.145 138.982 18.685C138.476 18.2097 137.71 17.972 136.682 17.972C135.992 17.972 135.31 18.0793 134.635 18.294C133.976 18.5087 133.416 18.8077 132.956 19.191L131.829 17.098C132.489 16.592 133.271 16.2163 134.175 15.971C135.095 15.7103 136.046 15.58 137.027 15.58C138.806 15.58 140.178 16.0093 141.144 16.868C142.126 17.7113 142.616 19.0223 142.616 20.801V28H139.902ZM136.038 28.161C135.118 28.161 134.313 28.0077 133.623 27.701C132.933 27.379 132.397 26.942 132.013 26.39C131.645 25.8227 131.461 25.1863 131.461 24.481C131.461 23.791 131.622 23.17 131.944 22.618C132.282 22.066 132.826 21.629 133.577 21.307C134.329 20.985 135.325 20.824 136.567 20.824H140.132V22.733H136.774C135.793 22.733 135.134 22.894 134.796 23.216C134.459 23.5227 134.29 23.906 134.29 24.366C134.29 24.8873 134.497 25.3013 134.911 25.608C135.325 25.9147 135.9 26.068 136.636 26.068C137.342 26.068 137.97 25.907 138.522 25.585C139.09 25.263 139.496 24.7877 139.741 24.159L140.224 25.884C139.948 26.6047 139.45 27.1643 138.729 27.563C138.024 27.9617 137.127 28.161 136.038 28.161ZM161.808 15.58C162.789 15.58 163.656 15.7717 164.407 16.155C165.174 16.5383 165.772 17.1287 166.201 17.926C166.63 18.708 166.845 19.72 166.845 20.962V28H163.97V21.33C163.97 20.2413 163.732 19.4287 163.257 18.892C162.782 18.3553 162.099 18.087 161.21 18.087C160.581 18.087 160.022 18.225 159.531 18.501C159.056 18.777 158.68 19.1833 158.404 19.72C158.143 20.2567 158.013 20.939 158.013 21.767V28H155.138V21.33C155.138 20.2413 154.9 19.4287 154.425 18.892C153.95 18.3553 153.267 18.087 152.378 18.087C151.749 18.087 151.19 18.225 150.699 18.501C150.224 18.777 149.848 19.1833 149.572 19.72C149.311 20.2567 149.181 20.939 149.181 21.767V28H146.306V15.718H149.043V18.984L148.56 18.018C148.974 17.2207 149.572 16.615 150.354 16.201C151.151 15.787 152.056 15.58 153.068 15.58C154.218 15.58 155.215 15.8637 156.058 16.431C156.917 16.9983 157.484 17.857 157.76 19.007L156.633 18.616C157.032 17.696 157.691 16.96 158.611 16.408C159.531 15.856 160.597 15.58 161.808 15.58Z" fill="white"/>
</g>
<defs>
<linearGradient id="paint0_linear_15_37" x1="18.8333" y1="4" x2="18.8333" y2="34" gradientUnits="userSpaceOnUse">
<stop stop-color="#877EFF"/>
<stop offset="1" stop-color="#514C99"/>
</linearGradient>
<clipPath id="clip0_15_37">
<rect width="171" height="36" fill="white"/>
</clipPath>
</defs>
</svg>
